<svg xmlns="http://www.w3.org/2000/svg" id="uuid-59f7fafe-fabb-4499-83e3-dd72bf1a7b10" width="568.23" height="101.75" viewBox="0 0 568.23 101.75"><defs><style>.uuid-57c6aa4c-8fa1-4fb0-8b56-aa30680ccdd9,.uuid-811df79e-2c4a-437a-ba20-8f53f263ae90{fill:#24386d;}.uuid-811df79e-2c4a-437a-ba20-8f53f263ae90,.uuid-864e89f1-6f6d-4b2e-b461-59747c124ada{stroke-width:0px;}.uuid-864e89f1-6f6d-4b2e-b461-59747c124ada{fill:#2eb5de;}</style></defs><rect class="uuid-57c6aa4c-8fa1-4fb0-8b56-aa30680ccdd9" x="160.01" y="22.56" width="18.62" height="77.8"></rect><rect class="uuid-811df79e-2c4a-437a-ba20-8f53f263ae90" x="99.97" width="18.62" height="100.36"></rect><rect class="uuid-811df79e-2c4a-437a-ba20-8f53f263ae90" x="129.99" width="18.62" height="100.36"></rect><path class="uuid-811df79e-2c4a-437a-ba20-8f53f263ae90" d="M239.22,30.87v8.48c-5-6.67-13.62-9.87-21.68-9.87-19.18,0-31.41,16.12-31.41,36.14s12.23,36.14,31.41,36.14c8.06,0,16.82-3.06,21.68-9.73v8.34h18.21V30.87h-18.21ZM222.26,84.52c-10.01,0-17.23-7.92-17.23-18.9s7.23-18.9,17.23-18.9,16.54,8.06,16.54,18.9-6.95,18.9-16.54,18.9Z"></path><path class="uuid-811df79e-2c4a-437a-ba20-8f53f263ae90" d="M267,30.87h18.21v9.31c5.56-7.64,13.48-10.7,21.96-10.7,18.35,0,24.74,11.81,24.74,30.85v40.03h-18.62v-37.66c0-10.15-2.64-15.57-12.09-15.57s-15.57,7.51-15.57,18.07v35.16h-18.62V30.87Z"></path><path class="uuid-811df79e-2c4a-437a-ba20-8f53f263ae90" d="M338.43,65.62c0-20.15,16.4-36.14,37.11-36.14,9.59,0,17.93,3.2,24.88,8.89l-11.26,13.06c-3.2-2.92-7.64-4.73-13.2-4.73-10.84,0-18.62,7.92-18.62,18.9s7.37,18.9,19.18,18.9c5.84,0,11.54-2.22,15.15-5.7l9.87,13.9c-6.67,5.7-15.98,9.03-25.99,9.03-20.71,0-37.11-15.98-37.11-36.14Z"></path><path class="uuid-811df79e-2c4a-437a-ba20-8f53f263ae90" d="M471.98,65.34c0-19.74-14.87-35.86-33.77-35.86-20.43,0-36,16.12-36,36.14,0,22.93,17.79,36.14,38.08,36.14,9.03,0,18.07-2.5,25.85-7.64l-6.95-13.34c-5.14,3.47-12.09,5.42-18.76,5.42-9.17,0-17.1-4.59-19.32-14.18h50.45s.42-3.34.42-6.67ZM420.84,59.64c1.81-8.76,8.76-14.59,16.82-14.59,8.48,0,15.43,5.84,16.82,14.59h-33.63Z"></path><circle class="uuid-811df79e-2c4a-437a-ba20-8f53f263ae90" cx="169.01" cy="9.61" r="9.31"></circle><path class="uuid-864e89f1-6f6d-4b2e-b461-59747c124ada" d="M538.05,66.87c-3.84-7.5-11.26-27.09-11.26-27.09,0,0-6.82,19.8-13.12,26.54-2.7,2.89-6.51,4.49-10.47,4.49h-4.49c11.96,16.99,29.1,29.56,29.1,29.56,0,0,9.4-7.96,19.13-19.03-3.36-4.38-5.88-8.61-8.89-14.48Z"></path><path class="uuid-811df79e-2c4a-437a-ba20-8f53f263ae90" d="M521.74,19.28h13.73l-5.9,13.95h8.18c7.28,0,10.05,6.38,13.18,12.22l8.52,19.51c5.11-8.03,8.78-16.42,8.78-23.99,0-22.37-18.3-40.67-40.67-40.67s-40.17,18.3-40.17,40.67c0,7.87,2.83,15.71,6.98,23.02l14.19-32.48c3.13-5.84,5.9-12.22,13.18-12.22Z"></path><path class="uuid-811df79e-2c4a-437a-ba20-8f53f263ae90" d="M59.41,16.09l-1.5-3.45,1.37-3.27h-12.87c-7.61.4-10.13,7.74-13.06,14.49L0,100.37h14.72s.02,0,.03,0c5.31,0,7.34-3.3,11.33-12.99l.53-1.33h43.63l6.12,14.32h19.74L59.41,16.09ZM32.98,70.9l16.03-37.5c1.28,3.28,2.86,7.3,4.69,11.79l10.42,25.71h-31.14Z"></path><path class="uuid-864e89f1-6f6d-4b2e-b461-59747c124ada" d="M195.93,1.27l-5.24,15.21h3.44l1.13-3.47h5.5l1.13,3.47h3.43l-5.24-15.21h-4.14ZM196.06,10.5l1.87-5.76h.12l1.87,5.76h-3.87Z"></path><polygon class="uuid-864e89f1-6f6d-4b2e-b461-59747c124ada" points="214.77 11.49 214.59 11.49 210.41 1.27 206.44 1.27 206.44 16.48 209.56 16.48 209.56 6.56 209.68 6.56 213.6 16.41 215.73 16.41 219.67 6.58 219.8 6.58 219.8 16.48 222.94 16.48 222.94 1.27 218.96 1.27 214.77 11.49"></polygon><polygon class="uuid-864e89f1-6f6d-4b2e-b461-59747c124ada" points="228.1 10.1 234.61 10.1 234.61 7.5 228.1 7.5 228.1 3.92 235.15 3.92 235.15 1.27 224.9 1.27 224.9 16.48 235.17 16.48 235.17 13.82 228.1 13.82 228.1 10.1"></polygon><path class="uuid-864e89f1-6f6d-4b2e-b461-59747c124ada" d="M247.25,9.18c-.41-.36-.9-.66-1.45-.91-.56-.25-1.17-.45-1.83-.6l-1.36-.34c-.44-.1-.84-.23-1.2-.38-.36-.15-.65-.35-.87-.59-.22-.24-.33-.54-.33-.89,0-.33.09-.63.28-.89.19-.26.47-.46.83-.61.36-.15.8-.22,1.32-.22.77,0,1.38.17,1.83.5.45.33.71.8.76,1.39h3.09c-.01-.9-.26-1.69-.73-2.38-.47-.69-1.13-1.22-1.97-1.61-.84-.39-1.83-.58-2.95-.58s-2.1.19-2.96.58c-.87.38-1.55.92-2.05,1.61-.5.69-.75,1.5-.75,2.41,0,1.12.37,2.02,1.11,2.69.74.67,1.75,1.16,3.03,1.46l1.66.41c.55.13,1.02.28,1.4.44.38.16.68.36.88.59.2.23.3.52.3.86,0,.37-.11.7-.33.98-.22.28-.53.5-.94.66-.4.16-.88.23-1.42.23s-1.06-.08-1.5-.25-.78-.43-1.04-.77c-.26-.34-.41-.77-.45-1.27h-3.1c.03,1.1.3,2.01.8,2.76.51.74,1.21,1.3,2.12,1.67.91.37,1.97.56,3.2.56s2.31-.19,3.18-.56c.88-.37,1.55-.9,2.02-1.58s.7-1.49.7-2.42c0-.63-.11-1.19-.34-1.68-.22-.49-.54-.91-.95-1.27Z"></path><path class="uuid-864e89f1-6f6d-4b2e-b461-59747c124ada" d="M263.08,10.51c.83-.38,1.46-.94,1.89-1.67.44-.73.65-1.6.65-2.6s-.22-1.88-.65-2.63c-.43-.75-1.06-1.32-1.87-1.73-.81-.41-1.79-.61-2.94-.61h-5.99v15.21h3.2v-5.39h2.35l2.88,5.39h3.55l-3.24-5.92s.11-.03.15-.05ZM257.38,3.9h2.17c.62,0,1.13.09,1.54.27.41.18.71.44.91.79s.3.77.3,1.28-.1.92-.3,1.26c-.2.33-.5.59-.91.75s-.92.26-1.54.26h-2.18V3.9Z"></path><polygon class="uuid-864e89f1-6f6d-4b2e-b461-59747c124ada" points="270.43 10.1 276.94 10.1 276.94 7.5 270.43 7.5 270.43 3.92 277.47 3.92 277.47 1.27 267.22 1.27 267.22 16.48 277.49 16.48 277.49 13.82 270.43 13.82 270.43 10.1"></polygon><path class="uuid-864e89f1-6f6d-4b2e-b461-59747c124ada" d="M286.47,10.76h3.24c-.01.6-.14,1.13-.4,1.58-.28.48-.67.84-1.18,1.11-.51.26-1.13.39-1.86.39-.8,0-1.5-.2-2.09-.59-.59-.39-1.05-.96-1.37-1.7-.33-.74-.49-1.64-.49-2.69s.16-1.95.49-2.69c.33-.74.79-1.3,1.38-1.69.59-.38,1.27-.58,2.05-.58.42,0,.79.05,1.14.16.34.11.65.25.92.45.27.19.5.43.69.71.19.28.33.6.43.96h3.25c-.1-.75-.33-1.44-.7-2.07-.36-.62-.84-1.16-1.41-1.62-.58-.46-1.24-.81-1.98-1.06-.74-.25-1.54-.37-2.4-.37-1.34,0-2.55.31-3.62.93-1.08.62-1.93,1.51-2.56,2.68-.63,1.17-.94,2.57-.94,4.22s.3,2.98.9,4.15c.6,1.17,1.44,2.06,2.52,2.69,1.08.63,2.33.94,3.76.94,1.28,0,2.41-.26,3.4-.77.99-.51,1.77-1.25,2.33-2.21s.85-2.11.85-3.44v-1.92h-6.36v2.42Z"></path><rect class="uuid-864e89f1-6f6d-4b2e-b461-59747c124ada" x="294.55" y="1.27" width="3.2" height="15.21"></rect><path class="uuid-864e89f1-6f6d-4b2e-b461-59747c124ada" d="M310.2,1.98c-1.08-.61-2.29-.91-3.63-.91s-2.56.3-3.63.91c-1.08.61-1.93,1.5-2.55,2.66-.63,1.17-.94,2.58-.94,4.24s.31,3.05.94,4.21c.63,1.16,1.48,2.05,2.55,2.66,1.07.61,2.29.92,3.63.92s2.56-.3,3.63-.91c1.08-.61,1.92-1.49,2.55-2.66.62-1.16.93-2.57.93-4.22s-.31-3.07-.93-4.24c-.62-1.17-1.47-2.05-2.55-2.66ZM309.95,11.59c-.32.74-.76,1.3-1.34,1.68-.58.38-1.26.57-2.04.57s-1.45-.19-2.03-.57c-.58-.38-1.03-.94-1.35-1.68s-.48-1.64-.48-2.71.16-1.98.48-2.73c.32-.74.77-1.3,1.35-1.68.58-.38,1.26-.57,2.03-.57s1.46.19,2.04.57c.58.38,1.03.94,1.34,1.68.32.74.48,1.65.48,2.73s-.16,1.97-.48,2.71Z"></path><polygon class="uuid-864e89f1-6f6d-4b2e-b461-59747c124ada" points="324.88 10.83 324.75 10.83 318.19 1.27 315.37 1.27 315.37 16.48 318.58 16.48 318.58 6.91 318.71 6.91 325.31 16.48 328.09 16.48 328.09 1.27 324.88 1.27 324.88 10.83"></polygon><path class="uuid-864e89f1-6f6d-4b2e-b461-59747c124ada" d="M334.47,1.27l-5.24,15.21h3.44l1.13-3.47h5.5l1.13,3.47h3.43l-5.24-15.21h-4.14ZM334.6,10.5l1.87-5.76h.12l1.87,5.76h-3.87Z"></path><polygon class="uuid-864e89f1-6f6d-4b2e-b461-59747c124ada" points="348.18 1.27 344.98 1.27 344.98 16.48 354.7 16.48 354.7 13.82 348.18 13.82 348.18 1.27"></polygon><polygon class="uuid-864e89f1-6f6d-4b2e-b461-59747c124ada" points="363.53 10.1 370.04 10.1 370.04 7.5 363.53 7.5 363.53 3.92 370.57 3.92 370.57 1.27 360.33 1.27 360.33 16.48 370.59 16.48 370.59 13.82 363.53 13.82 363.53 10.1"></polygon><path class="uuid-864e89f1-6f6d-4b2e-b461-59747c124ada" d="M377.27,4.49c.59-.39,1.27-.59,2.05-.59.44,0,.85.06,1.22.19.37.13.7.3.99.54.29.23.52.51.7.85.18.33.3.71.36,1.12h3.25c-.1-.88-.34-1.66-.7-2.34-.37-.68-.84-1.26-1.42-1.73-.58-.47-1.25-.83-2.01-1.08-.75-.25-1.57-.37-2.46-.37-1.33,0-2.54.3-3.61.91-1.07.61-1.92,1.5-2.54,2.66-.62,1.17-.93,2.58-.93,4.24s.31,3.05.93,4.21c.62,1.16,1.46,2.05,2.53,2.66,1.07.61,2.27.92,3.62.92.97,0,1.85-.15,2.62-.44.78-.3,1.45-.7,2.01-1.2.56-.51,1.01-1.08,1.34-1.73.33-.65.54-1.32.62-2.02h-3.25c-.07.41-.2.77-.39,1.09-.19.32-.43.58-.72.8-.29.22-.61.38-.98.5-.37.12-.77.17-1.19.17-.77,0-1.45-.19-2.03-.56s-1.04-.93-1.37-1.67c-.33-.74-.49-1.65-.49-2.73s.16-1.96.48-2.7c.32-.74.78-1.3,1.37-1.69Z"></path><path class="uuid-864e89f1-6f6d-4b2e-b461-59747c124ada" d="M397.96,1.98c-1.08-.61-2.29-.91-3.63-.91s-2.56.3-3.63.91c-1.08.61-1.93,1.5-2.55,2.66-.63,1.17-.94,2.58-.94,4.24s.31,3.05.94,4.21c.63,1.16,1.48,2.05,2.55,2.66,1.07.61,2.29.92,3.63.92s2.56-.3,3.63-.91c1.08-.61,1.92-1.49,2.55-2.66.62-1.16.93-2.57.93-4.22s-.31-3.07-.93-4.24c-.62-1.17-1.47-2.05-2.55-2.66ZM397.71,11.59c-.32.74-.76,1.3-1.34,1.68-.58.38-1.26.57-2.04.57s-1.45-.19-2.03-.57c-.58-.38-1.03-.94-1.35-1.68-.32-.74-.48-1.64-.48-2.71s.16-1.98.48-2.73c.32-.74.77-1.3,1.35-1.68.58-.38,1.26-.57,2.03-.57s1.46.19,2.04.57c.58.38,1.03.94,1.34,1.68.32.74.48,1.65.48,2.73s-.16,1.97-.48,2.71Z"></path><polygon class="uuid-864e89f1-6f6d-4b2e-b461-59747c124ada" points="412.64 10.83 412.51 10.83 405.95 1.27 403.13 1.27 403.13 16.48 406.34 16.48 406.34 6.91 406.47 6.91 413.07 16.48 415.85 16.48 415.85 1.27 412.64 1.27 412.64 10.83"></polygon><path class="uuid-864e89f1-6f6d-4b2e-b461-59747c124ada" d="M428.29,1.98c-1.08-.61-2.29-.91-3.63-.91s-2.56.3-3.63.91c-1.08.61-1.93,1.5-2.55,2.66-.63,1.17-.94,2.58-.94,4.24s.31,3.05.94,4.21c.63,1.16,1.48,2.05,2.55,2.66,1.07.61,2.29.92,3.63.92s2.56-.3,3.63-.91c1.08-.61,1.92-1.49,2.55-2.66.62-1.16.93-2.57.93-4.22s-.31-3.07-.93-4.24c-.62-1.17-1.47-2.05-2.55-2.66ZM428.04,11.59c-.32.74-.76,1.3-1.34,1.68-.58.38-1.26.57-2.04.57s-1.45-.19-2.03-.57c-.58-.38-1.03-.94-1.35-1.68-.32-.74-.48-1.64-.48-2.71s.16-1.98.48-2.73c.32-.74.77-1.3,1.35-1.68.58-.38,1.26-.57,2.03-.57s1.46.19,2.04.57c.58.38,1.03.94,1.34,1.68.32.74.48,1.65.48,2.73s-.16,1.97-.48,2.71Z"></path><polygon class="uuid-864e89f1-6f6d-4b2e-b461-59747c124ada" points="441.79 11.49 441.61 11.49 437.43 1.27 433.46 1.27 433.46 16.48 436.58 16.48 436.58 6.56 436.71 6.56 440.63 16.41 442.75 16.41 446.7 6.58 446.82 6.58 446.82 16.48 449.96 16.48 449.96 1.27 445.98 1.27 441.79 11.49"></polygon><rect class="uuid-864e89f1-6f6d-4b2e-b461-59747c124ada" x="451.92" y="1.27" width="3.21" height="15.21"></rect><path class="uuid-864e89f1-6f6d-4b2e-b461-59747c124ada" d="M466.85,12.37c-.19.32-.43.58-.72.8-.29.22-.61.38-.98.5-.37.12-.77.17-1.19.17-.77,0-1.45-.19-2.03-.56s-1.04-.93-1.37-1.67c-.33-.74-.49-1.65-.49-2.73s.16-1.96.48-2.7c.32-.74.78-1.3,1.37-1.69s1.27-.59,2.05-.59c.44,0,.85.06,1.22.19.37.13.7.3.99.54.29.23.52.51.7.85.18.33.3.71.36,1.12h3.25c-.1-.88-.34-1.66-.7-2.34-.37-.68-.84-1.26-1.42-1.73-.58-.47-1.25-.83-2.01-1.08-.76-.25-1.57-.37-2.46-.37-1.33,0-2.54.3-3.61.91-1.07.61-1.92,1.5-2.54,2.66-.62,1.17-.93,2.58-.93,4.24s.31,3.05.93,4.21c.62,1.16,1.46,2.05,2.53,2.66,1.07.61,2.27.92,3.62.92.97,0,1.85-.15,2.62-.44.78-.3,1.45-.7,2.01-1.2.56-.51,1.01-1.08,1.34-1.73.33-.65.54-1.32.62-2.02h-3.25c-.07.41-.2.77-.39,1.09Z"></path></svg>