<?xml version="1.0" encoding="utf-8"?>
<!-- Generator: Adobe Illustrator 19.1.0, SVG Export Plug-In . SVG Version: 6.00 Build 0)  -->
<svg version="1.1" id="Layer_1" xmlns="http://www.w3.org/2000/svg" xmlns:xlink="http://www.w3.org/1999/xlink" x="0px" y="0px"
	 viewBox="-163 309.2 284 174.8" style="enable-background:new -163 309.2 284 174.8;" xml:space="preserve">
<style type="text/css">
	.st0{fill:#FFFFFF;}
</style>
<g>
	<path class="st0" d="M-98.4,424.6c-1.9-1.7-0.3-4.8-0.3-6.9C-98.3,419.7-98.1,422.3-98.4,424.6L-98.4,424.6z"/>
	<path class="st0" d="M-38.5,425.6c-0.8-1.8-0.4-3.8-1.3-5.7c0.1-1.3,0.4-2.4,0.8-3.6c0.4,1.3,0.3,3,0.5,4.5
		C-38.4,422.6-37.6,424-38.5,425.6L-38.5,425.6z"/>
	<path class="st0" d="M-8.9,425.9c-0.5,0.1-1.3-0.1-1.3-0.8c0.1-2.8,1.7-5.5,0.9-8.4c0.1-0.9,0.1-1.7,0.4-2.4c0.4-0.1,1,0,0.8,0.5
		c0.2,2.5-0.2,5.1,0.3,7.6C-8.1,423.6-7.5,425.4-8.9,425.9L-8.9,425.9z"/>
	<path class="st0" d="M-4.4,402.4c0.2-1.3-2.1-2.5-0.3-3.6C-4.7,400-3.8,401.3-4.4,402.4L-4.4,402.4z"/>
	<path class="st0" d="M-78.8,426c-0.7,0.3-1.2-0.2-1.3-0.8c0-0.3-0.1-0.8,0.2-0.9c0.4,0.1,1.3-0.2,1.4,0.5
		C-78.6,425.4-78.4,425.9-78.8,426L-78.8,426z"/>
	<path class="st0" d="M-28.5,424.2c0.4-0.4,0.1-1.6,1.2-1.3c0.3,0.1,0.4-0.2,0.4-0.5c-0.2-0.5-0.9-0.5-1.2-0.9
		c-0.1-2.4-0.4-4.7-0.8-6.9c-0.2-3.8,1.6-6.8,2.4-10.3c-0.2-1.7,0.1-3.7-0.3-5.3c0.2,2.4-2.2,3.7-3.1,5.6c0.1,0.5-0.1,1-0.3,1.5
		c-1.9,0.8-2.4,2.9-3.8,4.3c-0.5,0.4-0.9-0.2-1.3-0.5c-0.2-0.3-0.3-0.9-0.6-1.1c-0.1,1.1,0,2.3-0.3,3.1c0.7,4,0.3,8.1,0.4,12.5
		c0.5,0.7,1.3,1.1,1.6,1.8h2.8C-30.9,425.2-29.4,424.8-28.5,424.2L-28.5,424.2z"/>
	<path class="st0" d="M-66.2,424.9c-0.2,0.4,0.3,0.9,0.4,1.3h1.9c0-0.3,0-1-0.3-1.2C-64.6,424.4-65.8,424.1-66.2,424.9L-66.2,424.9z
		"/>
	<path class="st0" d="M-22.8,424.1c-0.9-4.7-0.8-10-0.9-14.9c-0.8,1.4-1.1,3.1-1.6,4.7c0.1,2.3,0.1,4.2,0.4,6.4
		c0.1,1.2,0.3,2.6-0.2,3.6c0.4,0.9,0.1,2.3,1.2,2.5C-22.9,426.1-23.1,424.8-22.8,424.1L-22.8,424.1z"/>
	<path class="st0" d="M-119.4,421.5c0.2-3.5-0.2-6.8-0.1-10.4c-0.9,2.1-1.8,4.3-2.3,6.6c-0.8,2.2,1.5,3.1,1.1,5.2
		c1,0.8,2.2,1.5,3.4,1.6C-116.8,422.9-119,422.7-119.4,421.5L-119.4,421.5z"/>
	<path class="st0" d="M-74.5,424.6c0,0.3,0.3,0.4,0.4,0.7c0.1,0.5,0.4,0.7,0.6,1h3.1c0.2-0.5,0.9-1.2,0.9-1.8
		C-71,424.5-72.8,424.4-74.5,424.6L-74.5,424.6z"/>
	<path class="st0" d="M-102.6,424.4c-0.4-0.9,0.3-1.6,0.6-2.4c1.1-4.7,2.4-9.5,1.8-14.6c0.1-2.3,0.5-4.3,1.1-6.5
		c-0.1-1.2,0.5-2.9-0.9-3.5c-2.3,0.4-5.2,0.5-7.5-0.1c-0.6-0.2-1.1-1-1.8-1.2c-0.9,1.7-1.5,3.6-2.9,4.9c-1.5,2.2-3.4,4.1-4.7,6.3
		c0,4.5-0.1,9.4,0.9,13.6c1.5,1.4,2,3.2,2.7,4.9c3.3,0.6,11.6,0.4,11.6,0.4C-101.6,425.6-102.3,424.9-102.6,424.4L-102.6,424.4z"/>
	<path class="st0" d="M-11.9,414.6c-0.1-0.9-1.4-0.3-1.5-1.3c0.7-1.5,1.1-3.3,1.2-5c0.4-2.8-0.1-6.1,1.1-8.7
		c-0.3-0.4-0.5-1.1-0.8-1.6c-0.8,1-1,2.3-1.7,3.1c-2.1,1.6,0.3,4.5-2.2,6.1c-0.2,0.2-0.6,0.1-0.8-0.2c-0.3-0.9-0.3-2.2,0-3
		c-0.5-2.4-1.9-4.4-2.5-6.9l-0.1,1c0,2.2,0,4.4-0.8,6.4c1.1,3-0.1,6.5,0.1,9.5c0.4,3.4,0.1,6.8,0.3,10.1l1,0.9
		c0.1,0.5,0.3,1.1,0.6,1.3h4.2l1.6-1.3C-10.3,421.7-12.1,418.2-11.9,414.6L-11.9,414.6z"/>
	<path class="st0" d="M20,415.8c0.1,0.2,0.4,0.6,0.9,0.4c-0.1-0.3-0.5-0.5-0.9-0.6V415.8L20,415.8z"/>
	<path class="st0" d="M50.6,391.8c-0.3-0.5-0.6,0.3-1.1,0.3c-0.4-0.1-0.3-0.6-0.8-0.6c-0.1,0.4,0.1,1.1-0.4,1.4
		c-0.8,0-0.4-0.8-0.8-1.1c-0.3-0.2-0.8-0.1-1,0.1c-0.1,0.4,0.4,0.5,0.5,0.9c1.2,1.1,2.6,2.1,3.5,3.4c1.5-1.1,3.6-2,4-4
		c-0.4-0.4-1,0-1.5,0.1c-0.9-1.6-1.5,0.6-2.6,0.6C50.2,392.6,50.7,392.2,50.6,391.8L50.6,391.8z"/>
	<path class="st0" d="M88.9,379.6c-1.3-15.3-9.3-30.4-23.9-37.5c-6.4-3-14.3-4.4-21.6-2.9C30,341,17.9,354.2,13.3,366.2
		c-0.3-0.8-0.6-1.9-1.1-3c-5-12.4-17.8-22.7-30.9-24.6c-15.8-1.8-30.1,7.9-37,21.7c-6,9.4-7.2,22.3-4.4,33.6c0.2,0.7,0.7,2,1.1,2.7
		c-9.3,0.3-18.9,0-28.2,0c-0.1,0-0.4-0.1-0.3-0.4c6.9-7.3,13.9-13.5,21-20.8c5.8-5.8,7.3-15.9,3.9-23.4c-3.1-7.6-11-12.8-19.1-13.3
		h-35.2c-1.5,0.1-3,0.4-4.4,0.9c-4.8,1.6-8.8,6.2-9.7,11c-1,5.3,0.6,10.4,4.5,14.1c5.4,5.6,13.6,3.6,20.9,4.1c0.2,0,0.5,0.2,0.4,0.4
		c-6.8,7.1-14,13.8-20.9,20.8c-1.8,2.1-3.1,4.3-4.1,6.7c-2.9,7.6-1.1,16.7,4.5,22.4c0.6,0.6,0.9,1.3,1.6,1.3c0.2-1.1-1.4-1.4-1-2.6
		c2.2-4.8,3.2-9.7,4.3-14.9c0.6-1,1.8-1.1,2.7-2.1c1.2-2.2,2.1-5,1.1-7.5c-0.1,0-0.3,0-0.3,0.1c-0.9,1.9-0.1,5-2.6,5.8
		c-0.5-0.9,0.1-2.1-0.1-3c0.8-2.4,2.4-4.4,2.7-7c1.4-9.3,12.8-3.8,17.3-10.1c1.9-1.7,4.9-1,6.7-2.7c5.5-5.3,11-10.9,16.5-16.1
		c0.9-0.9,0.2-2.3,0.3-3.2c1.1-1.7,0.6,1.2,1.8,0.9c1-0.4-0.3-1.4,0.3-2.1c0.3-0.1,0.6-0.1,0.9,0.2c0,0.2,0.1,0.5-0.1,0.8
		c-0.4,2.1,2.4,1.2,2.8,2.9c1,0.5,2.2,0.3,2.8,1.4c-0.1,0.9,1,2.1-0.2,2.7l-3.7-0.6c-0.9,0.3-1.8,0.6-2.8,0.6l-14.6,18.4l-0.8,1.4
		c-1.1,1.9-0.2,4.1,0,6.2c0,2.6-1.4,5-3.8,6.2c-0.4,1.1-0.8,2.3-1,3.5c-0.7,3.1-0.1,6.7-1.7,9.5c-0.2,4.6,0.1,9.5,0.7,14
		c1.2,0.8,1.5,2.2,2.1,3.3h8.7c0,0,0-0.1,0-0.1c0.3-0.6,0.8-1.5,1.2-2.1c-0.5,0-1.3,0.3-1.8-0.1c0.1-0.5,0.7-0.5,0.9-0.9
		c0.4-0.4,0.2-1-0.2-1.3c0.2-1.6,0.1-3.7,1.8-4.5l0.5-1.6c0.8-1,1.7-1.9,3-2.2l1.1-1.4c1.2-0.8,2.5-1.5,4-1.1
		c1.3-0.9,3.2-1.2,4.8-0.5c0.9,1.5,3,0.2,4.1,1.3c0.7,0.5,1.2,1.3,1.3,2.2c0.8,0.2,1.6,0.3,2.3,1.1c1.1,1.2,0.8,3.1,2.1,4.1
		c0.2,0.3-0.3,0.6-0.2,1c2.5,1.4,2.8-2.8,5.2-1.9c0.3,0.2,1,0.3,1,0.9c0.2,1-0.9,1.5-1.3,2.1c-1.7-0.2-2.8,1.2-4.1,1.8
		c-0.8,0.3-1.8-0.2-2.3,0.5c-0.1,0.9,0.9,1.4,1.5,1.9c0.2,0.2,0.1,0.8,0.4,0.9h15.6c0.7-1.2,2.3-0.9,3.1-1.7l-0.9-3.4
		c-1.4-2.8,0-6.1,0.2-9c-0.8-2.1-1-4.3-1.5-6.4c-2.4,0-4.9-0.1-7-0.4c-1,0.1-2.2,0.8-2.8-0.3c-0.3-0.4-1-0.2-1.1-0.8
		c0.2-0.1,0.3-0.2,0.5-0.3l10.9-0.1c0.3-0.2,1.1-0.1,1.1-0.9c-0.1-0.2-0.3-0.4-0.7-0.4c-0.8-0.2-0.7-1.1-0.7-1.6
		c0.4-0.5-0.1-1-0.1-1.5c0.4-0.7,1.3-0.5,1.9-0.8c1,0,1.9,0.4,2.4,1.3c1,1.2-0.9,1.9-0.9,3c0.2,0.4,0.9,0.4,1.3,0.3
		c2.6-0.5,2.6,2.6,3.9,3.8l1.7-1.5c-0.2-2.1,1.9-3.3,2.8-4.7c1-2.5,1-5.2,1.5-7.8c0.1-1.1,0.5-2.1,1.5-2.8c0.7-0.5,2.6-0.2,1.9-1.5
		c-1.4,0.2-1.3-1.4-1.9-2.2c0.4-0.9,0.7-1.7,0.1-2.6c0.5-1.1,1.7-1.2,2.7-1.4c1.3,0.1,2.8,0.4,3.3,1.7c0.6,1.5,0,3-1.2,4
		c-0.2,0.5,0,1.1,0.4,1.4c5,1,4.7,6.5,5.4,10.3c0.1,0.5,0.2,1.3,0.6,1.5c0.8-1.3,0.9-2.9,1.5-4.4c0.8-1.2,0.8-3,2.4-3.7
		c-0.1-0.9,0.3-1.5,0.8-2.2c-0.8-2,1.2-2.7,2.3-3.7c1-0.5,1.4,0.7,2.3,1c0.7,0.3,0.7,1.2,0.8,1.8c0.8,1,0.8,2.4,0.7,3.5l1.2,1.2
		c1.4,1.6,0.7,4,0.4,6c0.1,2.4,0.8,5-0.4,7l-0.5-0.3c-0.5,1.8,0,3.8,0.3,5.5c-0.1,0.5-0.8,0.4-1.2,0.5c-1,0.3-0.3,1.6-0.8,2.4
		c0.4,2.9-0.5,5.7-0.6,8.8l1.2,1.3h20.4c0.9-1.1,2.3-0.6,3.1-1.6c0.6-2.1,4-4.2,1.5-6.4c-0.9-0.5-1.8-0.1-2.6,0.3
		c-0.2,0.4-0.1,0.9-0.3,1.3c-0.3,0-0.3-0.4-0.6-0.5c-0.5-0.8-1.6-0.2-2.3-0.8c0.1-0.2,0.4-0.5,0.6-0.6c1.6,0.1,3.1-0.2,4.2-1.1
		c-0.2-0.7-0.5-1.2-1-1.6c-2.5-0.2-3.9-2.9-5.7-4.4c-1.7-2.5,0.5-5.1,1.1-7.6c-0.3-0.8-1.4-0.5-1.9-1.3c-0.8-0.2-1.4,0.8-2.1,0.2
		c-0.1-0.4,0.2-0.8,0.5-1.1c1.4,0.6,1.7-1.5,3-1.1c1.5-0.1,1.8,1.6,2.4,2.6c0.5,2.7-2.9,4.6-1.2,7c0.3,0.1,0.8,0.3,1.1,0.1
		c0.9-1,1.7-1.8,2.9-2.2c1.8-0.4,4.7-1.3,6.2,0.2c-0.9,1,1,0.6,1,1.4c-1,0.6,0.3,1,0.3,1.6c-0.1,0.2-0.4,0.3-0.6,0.5
		c-0.1,0.2,0.2,0.3,0.2,0.6c-0.8,1.5-2.5,2.4-4,2.7c0.4,0.8,1.8,1.1,2.2,2.1c-0.2,0.5-0.9,0.4-1.4,0.6c-1.4,0.6,0.9,1.5,0.4,2.5
		c-0.9,1.5-1.6,3-2.4,4.7c-0.5,1,1,0.8,1,1.7h24.6c0,0,1.2-0.5,1.7-1.1c0.5-0.6,0.6-1.5,0.8-2.4c0-8.6,1.3-17.2,0.5-26
		c-0.5-1.8-2.7-2.3-3.7-4c-0.6-0.1-1.1,0.8-1.6,0.4c0.2-1.1-1.1-0.5-1.5-0.6c-0.3,0.3,0.4,0.6-0.1,1c-0.7,0.2-0.9-0.7-1.2-0.9
		l-0.9,0.8l-0.5-0.5l-0.1,0.1c-0.6,0.5-1.7,0.6-2.6,0.2c-0.2-0.4,0.4-0.6,0.6-0.8l-0.6-0.6c0.1-0.4,0.6-0.3,1-0.5
		c-0.1-0.2,0.1-0.5-0.1-0.8c-0.3,0-0.6,0-1,0.1c-0.2-0.1-0.3-0.3-0.3-0.7c-0.5,0.1-1,0.7-1.3,1.1c-0.3,0.1-0.3-0.5-0.6-0.4
		c-0.4,0.4-1.5,0.8-0.7,1.4c-0.1,0.1-0.2,0.2-0.3,0.2c-0.5-0.9-1.4-0.1-2.1-0.7c-0.2-0.9,0.8-1.2,1.3-1.4c0.4-0.7-0.2-1.1-0.2-1.6
		h0.8v-0.2c0.2-0.6-0.4-0.6-0.9-0.6c-0.8,0-0.4-0.9-0.2-1.1c-0.5-0.2-1,0.2-1.5,0.3c-0.3-0.2-0.3-0.5-0.2-0.9c0.2-0.4,0.6-0.5,1-0.8
		c0.3-0.8-0.9-0.3-1.1-1c-0.3-0.5,0.5-0.5,0.8-0.9c0.1-0.2-0.1-0.4-0.2-0.5c-0.1-0.2-0.5-0.4-0.2-0.6c0.8-0.1,0.4-0.9,0.5-1.4
		c-0.3-0.3-0.9-0.4-0.9-1c0.1-0.5,0.6,0,0.9-0.1c0-0.5-0.3-0.9-0.6-1.2c-0.5,0-1,0.6-1.4,0.8c-0.2,0.3,0.3,0.7,0.1,1.1
		c-0.4,0.3-0.9-0.4-1.2-0.8c-0.3-0.1-0.4,0.4-0.8,0.3c-0.2-0.8-0.1-1.7-0.5-2.5c0.1-0.5,0.8,0,1-0.3c0-0.8-0.6-1.3-1.1-1.8
		c0.2-0.3,0.5-0.2,0.8-0.2c1.2-1.1-0.8-1.1-1-1.9c0.2-0.4,0.7-0.1,0.9-0.3c0.1-0.4-0.3-0.8,0-1.2c0.5-0.2,0.8,0.4,1.2,0.7
		c0.4-0.3,0.2-0.9,0.4-1.3c0.8,0.2,0.6-0.8,1.1-1.1c0.3-0.5-0.3-0.5-0.6-0.8c-0.3-0.1-0.9-0.4-0.8-1c0.3-0.3,0.8-0.3,1.1-0.4
		c-0.2-0.8-1.1-0.6-1.6-1c0-0.3,0.2-0.7,0.5-0.9c0.4-0.3,1.1-0.3,1.6-0.2c0.5,0,0.5-0.8,1.1-0.8c0.2,0.2,0.2,0.6,0.2,1
		c0.3,0.1,0.6-0.2,0.8-0.4c0.8-0.9-0.2-1.5-0.3-2.3c0.3-0.4,1,0,1.3-0.1c0.8-1-0.9-1-0.8-1.8c0.8-0.4,1.5-0.1,2.3,0.1
		c0.4-0.2,1-0.9,1.5-0.4c0.2,0.4-0.2,0.9-0.4,1.3l0.3,1.1c1.4-0.1,0.9-1.8,1.9-2.1c0.3,0.2,0.3,0.7,0.5,1c0.2-0.2,0.6-0.5,0.6-1.1
		c-0.3-0.7-0.6-1.4-1.6-1.1c-0.3,0-0.5-0.4-0.3-0.6c0.1-0.6,0.8-1.1,1.4-1.2c0.3-0.5-0.7-1-0.2-1.4c0.6,0,1.1,0.5,1.5,1
		c0.9,0.3,1.1-0.8,1.6-1.1c0.3,0.1,0.4,0.5,0.6,0.8c1.4,0.1,0.6-1.4,1.4-1.9c0.7,0,0.7,0.6,0.9,1.1c0.5,0.1,0.5-0.6,1.1-0.6
		c0.2,0.2,0.4,0.5,0.2,0.9c0,0.8-0.9,0.8-1.3,1.2l1.3,0.3c0.4-0.3,1-0.5,1.5-0.7c0.1-0.4-0.3-0.6-0.2-1.2c-0.1-0.1,0.1-0.3,0.3-0.2
		c0.7,0.7,0.9-0.4,1.3-0.8c1-0.2,0.6,1.3,1.3,1.6c0.8,0.3,0.5-0.8,1.1-1c0.4,0.3,0.9,0.5,1.3,0.1c0.4,0.3,0.4,1.4,1.2,1.3
		c-0.2-1.7,1.3,0.1,1.6-1.1c0.5,0.4,0.8,1.4,1.5,1.3l0.3-0.8c0.1-0.2,0.3,0,0.4,0c0.6,1.2,1.6,0.3,2.1-0.3c0.4,0.2,0,0.9,0.3,1.1
		c1.3-0.4,0.5,1.2,1.1,1.6c0.4,0.1,0.4-0.4,0.8-0.6c0.4-0.1,0.5,0.4,0.9,0.5c0.4-1.2,1.1,0.2,1.8-0.4c0.3,0,0.2,0.3,0.2,0.5
		c-0.8,0.3-0.1,1.4-0.8,1.6c-0.8-1.1-1.6,0.4-2.6,0c-0.1,0.4,0.2,0.8,0.3,1.2c1.1-1.2,1,1,1.9,1c0.2-0.1-0.1-0.5,0.2-0.8
		c0.9,0,1.1,1.3,1.9,0.4c0.9,0.1,0.1,0.9,0.1,1.3c0.1,0.5,0.7,0.2,1.1,0.3c0.2,0,0.3,0.2,0.3,0.4c-0.1,0.3-0.4,0.4-0.7,0.5
		c-0.1,0.5,0.3,1.1,0.5,1.4c0.4-0.1,1.1-0.3,1.4,0c0,0.1,0.1,0.2,0,0.3c-0.4,0.4-0.6,0.9-0.3,1.4c-0.2,0.3-0.4,0.2-0.8,0.2v0.7
		c0,0.7-0.8,0.1-1,0.3c0.2,0.6,0.5,1.3,0.8,2c0.3-0.1,0.9,0,1-0.4c-0.1-0.2-0.2-0.5,0.2-0.8c0.8,0.3,0.9-0.9,1.6-0.8
		c0.3,0.3-0.1,0.6,0.1,1.1c0.1,0.4,0.8,0.3,1,0.9c0.4,0.9-0.9,0.3-1.1,0.9c-0.2,0.3-0.1,0.8,0,1.1c0.3,0,0.5,0,0.8,0.3
		c0,0.1,0,0.3-0.1,0.3c-0.2,0.2-0.4,0.6-0.1,0.9c1.6-0.3,0.1,1.1,1,1.7c-0.3,0.4-0.8,0-1.1,0.1c-0.2,0.7,0.7,0.7,0.9,1.2
		c0.5,1-0.9,0.4-1.2,1c0,0.3,0.1,0.7,0.2,0.9c-0.4,0.3-0.5,0.5-0.8,1c-0.4,0.3-0.9-0.4-1.3-0.2c0.4,1.3-1.7,0.2-1.2,1.6
		c0,0.5,0.5,0.4,0.9,0.7c0.2-0.2,0.2-0.7,0.5-0.8c0.7,0.8,1.5-0.5,1.9,0.4c-0.4,0.9,0.7,0.5,1,1.1c0.1,0.2-0.2,0.3-0.3,0.4
		c-0.5,0.1-0.4,0.6-0.3,1.1c-0.8,0.3-0.8,1.3-1,1.9c-0.9-0.4-0.8,0.7-1.3,1c-0.4,0.1-0.5-0.3-0.8-0.5c-0.2-0.1-0.2,0.1-0.3,0.2
		c-0.5,0.2-0.6-0.4-0.9-0.7c-0.2,0-0.4,0-0.6,0.2c0.6,0.8-0.8,1.2,0,1.9c-0.2,0.5-1.1,0-1.2,0.5c-0.1,0.4,0.4,0.4,0.8,0.4
		c0.1,0,0.4,0.2,0.3,0.4c-0.3,0.5,0,0.8,0.3,1.2c-0.2,0.1-0.3,0.2-0.4,0.3c-0.7,0.2-1,0.8-1.7,0.3c-0.4,0-0.1,0.5-0.3,0.7
		c-0.5,0.2-1-0.4-1.3-0.8c-0.5,0-0.1,0.9-0.5,1.1c-0.5,0.5-0.6-0.3-1.1-0.4c-0.8,1-1.1-0.8-1.9-0.5c-0.5,0.1-0.4,0.7-0.8,1
		c-0.8-0.1-0.4-1.1-1.2-1.2c-0.6,2.9-4.4,4-4.9,7c-0.2,6.4-0.3,13-0.1,19.4c0,2.1-0.1,4.1,0.6,5.8c0.3,0.5,1,1.2,1.7,1.2
		c7.3-0.8,13.6-3.7,19.2-8.7C83.7,407.2,89.6,394.6,88.9,379.6L88.9,379.6z M-11.4,358.7c-3.4,3.1-4.1,7.3-7.7,10.2
		c1.1,0.8,2.8,0,4.2,0.3c0.9,0.6,1,1.8,1.3,2.8c-0.2,0.5-0.2,1.1-0.6,1.5c-1.6,0.1-2.9-1-4.4-1.2c-1-0.2-2.4-0.2-3.4,0
		c-0.4,0.5,0.1,1.2-0.5,1.6c0.4,1-0.5,1.5-0.4,2.4c-0.6,0.2-1.2,0.7-1.8,0.9c0.1-1,2.1-2,1-3c-0.9,0-0.5,1.2-1.4,1.2
		c-0.2-0.3-0.5-0.6-0.7-1.1c0.5-0.1,1.1-0.3,1.5-0.9c-0.1-0.5-0.5-1-1-1.2c-2.2-0.2-3.8-1.9-5.7-2.7c0.3-0.8-0.9-0.5-0.8-1.1
		c1.3-1.7,4.2,0.6,4.8-1.9c1-4.9,0.2-10.4,2.6-14.6c1.2-2.1,3-4.4,5.2-5.4l0.1,0.9c0.8-0.3,1.3-1.3,2.2-1.2c0.1,0.4,0.4,0.5,0.8,0.8
		c-0.4,0.8,0,1.6-0.2,2.4l0.2,0.5c-1.5,3.6-1.6,7.7-2.2,11.7l0.1,0.1c1.6-1.1,2.8-3.5,5-3.5c0.2-0.1,0.4-0.1,0.8-0.2
		C-12.5,359-11.1,357.5-11.4,358.7L-11.4,358.7z"/>
	<path class="st0" d="M-110.2,321.7L-110.2,321.7c2.4-0.7,3.2-2.4,3.2-4.8c0-3.1-1.9-5.8-7.9-5.8h-7.4c-2.8,0-4.1,1.3-4.1,4.4v14.3
		c0,3.1,1.3,4.4,4.1,4.4h7.9c5.7,0,8.4-3,8.4-6.8C-106.1,324.5-107.5,322.3-110.2,321.7L-110.2,321.7z M-119.5,316.3h3.5
		c1.5,0,2.2,0.8,2.2,2.1c0,1.1-0.8,2.1-2.2,2.1h-3.5V316.3L-119.5,316.3z M-115.9,328.9h-3.6v-4.4h3.6c1.7,0,2.9,0.7,2.9,2.2
		C-113,328.2-114.2,328.9-115.9,328.9L-115.9,328.9z"/>
	<path class="st0" d="M-89.5,328.2h-7.5v-13.5c0-2.5-1.4-4-3.6-4c-2.2,0-3.6,1.5-3.6,4v15.1c0,3.1,1.3,4.4,4.1,4.4h10.6
		c1.8,0,3.1-1.1,3.1-3C-86.4,329.3-87.6,328.2-89.5,328.2L-89.5,328.2z"/>
	<path class="st0" d="M-70.6,313.6c-0.7-1.9-1.6-3-3.4-3h-2.2c-1.8,0-2.7,1.1-3.4,3l-4.7,13.6c-0.5,1.5-1.1,3.2-1.1,4.3
		c0,1.7,1.6,3,3.3,3c1.1,0,2.5-0.5,2.9-1.8l0.5-1.7h7.5l0.5,1.7c0.4,1.3,1.8,1.8,2.9,1.8c1.6,0,3.3-1.2,3.3-3c0-1.1-0.6-2.8-1.1-4.3
		L-70.6,313.6L-70.6,313.6z M-77.6,326.4l2.4-8.4h0.1l2.4,8.4H-77.6L-77.6,326.4z"/>
	<path class="st0" d="M-46.1,310.5c-2.2,0-3.5,1.5-3.5,3.7v9.6h-0.1l-6.3-11.1c-0.9-1.6-2.2-2.2-3.9-2.2c-2.7,0-4.1,1.4-4.1,3.9
		v16.4c0,2.5,1.2,3.8,3.5,3.8c2.2,0,3.5-1.4,3.5-3.8v-9.1h0.1l5.9,10c1.4,2.3,2.4,2.9,4.3,2.9c2.3,0,4-1,4-3.5v-16.9
		C-42.6,312.1-43.9,310.5-46.1,310.5L-46.1,310.5z"/>
	<path class="st0" d="M-26.4,320.2l3.4-3.8c0.9-1,1.4-1.6,1.4-2.7c0-1.4-1.2-3.1-3.2-3.1c-1.2,0-1.9,0.6-3.3,2.2l-5.6,6.3v-4.5
		c0-2.5-1.4-4-3.6-4c-2.2,0-3.6,1.5-3.6,4v15.9c0,2.5,1.4,4,3.6,4c2.2,0,3.6-1.5,3.6-4v-3.2l2-2.3l4.9,7.8c0.8,1.3,1.8,1.6,2.9,1.6
		c1.9,0,3.6-1.5,3.6-3.4c0-0.8-0.3-1.5-0.7-2.2L-26.4,320.2L-26.4,320.2z"/>
	<path class="st0" d="M-0.4,311.1h-6.5c-2.8,0-4.1,1.3-4.1,4.4v15.2c0,2.5,1.2,3.8,3.5,3.8c2.2,0,3.5-1.4,3.5-3.8V327h3.6
		c5.5,0,9.7-1.7,9.7-7.9C9.4,312.8,5.1,311.1-0.4,311.1L-0.4,311.1z M0,321.4H-4v-4.8h3.6c1.7,0,2.8,0.9,2.8,2.4
		C2.4,320.7,1.2,321.4,0,321.4L0,321.4z"/>
	<path class="st0" d="M22.3,313.6c-0.7-1.9-1.6-3-3.4-3h-2.2c-1.8,0-2.7,1.1-3.4,3l-4.8,13.6c-0.5,1.5-1.1,3.2-1.1,4.3
		c0,1.7,1.6,3,3.3,3c1.1,0,2.5-0.5,2.9-1.8L14,331h7.5l0.5,1.7c0.4,1.3,1.8,1.8,2.9,1.8c1.6,0,3.3-1.2,3.3-3c0-1.1-0.6-2.8-1.1-4.3
		L22.3,313.6L22.3,313.6z M15.3,326.4l2.4-8.4h0.1l2.4,8.4H15.3L15.3,326.4z"/>
	<path class="st0" d="M48.5,326.6c-0.3-2.4-1.9-3.2-4.1-3.4v-0.1c2.8-0.5,4.5-2.5,4.5-5.5c0-3.5-2.5-6.5-7.9-6.5H33
		c-3.1,0-4.4,1.3-4.4,4.4v15.2c0,2.5,1.2,3.8,3.5,3.8c2.2,0,3.5-1.4,3.5-3.8v-4.8h2.8c1.7,0,2.9,0.5,3.1,2.4l0.3,3
		c0.2,2.3,1.9,3.2,3.9,3.2c1.5,0,3.2-1.1,3.2-2.8c0-1-0.2-2.1-0.3-3.2L48.5,326.6L48.5,326.6z M39.2,321.1h-3.6v-4.5h3.6
		c2.1,0,2.9,0.7,2.9,2.2C42.1,320.5,41.3,321.1,39.2,321.1L39.2,321.1z"/>
	<path class="st0" d="M70,329l-5.4-8.7l3.4-3.8c0.9-1,1.4-1.6,1.4-2.7c0-1.4-1.2-3.1-3.2-3.1c-1.2,0-1.9,0.6-3.3,2.2l-5.6,6.3v-4.5
		c0-2.5-1.4-4-3.6-4c-2.2,0-3.6,1.5-3.6,4v15.9c0,2.5,1.4,4,3.6,4c2.2,0,3.6-1.5,3.6-4v-3.2l2-2.3l4.9,7.8c0.8,1.3,1.8,1.6,3,1.6
		c1.9,0,3.6-1.5,3.6-3.4C70.7,330.3,70.4,329.6,70,329L70,329z"/>
</g>
<g>
	<path class="st0" d="M-162,472.3v-16.7h2.9v16.7H-162z"/>
	<path class="st0" d="M-150.2,468.9c0,0.9-0.8,1.4-1.4,1.4c-0.7,0-1.4-0.5-1.4-1.4c0-2.7,0-6.9,0-9.6c0-1,0.8-1.4,1.4-1.4
		c0.7,0,1.4,0.5,1.4,1.4C-150.2,462.6-150.2,465.6-150.2,468.9z M-147.2,468.8c0-3.2,0-8.9,0-9.4c0-2.8-1.9-4-4.5-4
		c-2.3,0-4.4,1.1-4.4,4.1c0,3.6,0,5.9,0,9.5c0,2.9,2.6,3.8,4.4,3.8C-149.7,472.7-147.2,471.9-147.2,468.8z"/>
	<path class="st0" d="M-134,472.3h-2.8l-1.4-9l-1.5,9h-2.7l-2.7-16.7h2.7l1.5,9l1.4-9h2.5l1.5,9l1.4-9h2.8L-134,472.3z"/>
</g>
<g>
	<path class="st0" d="M-124.9,467h-2l1-6.7L-124.9,467z M-121.1,472.3l-3.1-16.7h-3.3l-3.3,16.7h2.8l0.6-2.9h2.9l0.6,2.9H-121.1z"/>
	<path class="st0" d="M-117.6,460.2c-0.3,0-0.8,0-1.2,0v-0.9h0.8c0.7,0,0.6-0.9,0.6-1.4c-0.3,0-1.2,0-1.2,0v-2.6h2.2c0,0,0,1.3,0,3
		C-116.4,458.8-116.4,460.2-117.6,460.2z"/>
	<path class="st0" d="M-109.5,472.7c-2.4,0-4.3-1.3-4.3-4.1v-1.9h2.9c0,0,0,1.5,0,2c0,0.7,0.4,1.5,1.4,1.5c1.1,0,1.4-0.7,1.4-1.4
		c0,0,0-0.3,0-1.4c-0.1-2.3-5.6-2.9-5.6-6.7v-2c0-2,1.9-3.4,4.1-3.4c2.1,0,4.3,1.2,4.3,3.4v2.4h-2.9c0,0,0-1.8,0-1.9
		c0-0.3-0.1-1.3-1.4-1.3c-0.9,0-1.2,0.8-1.2,1.2c0,0,0,0.8,0,1c0,3,5.8,3,5.8,7v2.1C-105,471.6-107.5,472.7-109.5,472.7z"/>
</g>
<g>
	<path class="st0" d="M-77.3,474.3h-3.8l-1.8-12.2l-2,12.2h-3.6l-3.7-22.7h3.7l2,12.2l1.9-12.2h3.4l2,12.2l1.9-12.2h3.8L-77.3,474.3
		z"/>
	<path class="st0" d="M-70.5,474.3v-22.7h4v22.7H-70.5z"/>
	<path class="st0" d="M-62.1,474.3v-22.7h3.9V471h6.2v3.3H-62.1z"/>
	<path class="st0" d="M-40.7,469.1c0,1.3-0.9,2-1.7,2c-0.8,0-2.3,0-2.3,0v-16.1h1.8c1.5,0,2.3,1,2.3,3
		C-40.7,458.8-40.7,469.1-40.7,469.1z M-36.8,469.1c0-1.4,0-12.4,0-12.4c0-4.9-4.8-5.1-5.9-5.1c-1.6,0-5.9,0-5.9,0v22.7h6.6
		C-38.6,474.3-36.8,472-36.8,469.1z"/>
	<path class="st0" d="M-32.4,474.3v-22.7h10.1l0,3.4h-6.2v5.5l3.9,0v3.4h-3.9v7.2l6.6,0v3.4H-32.4z"/>
	<path class="st0" d="M-12.4,474.8c-3.3,0-5.9-1.7-5.9-5.5v-2.6h4c0,0,0,2,0,2.7c0,1,0.6,2,1.9,2c1.5,0,1.9-0.9,1.9-2
		c0,0,0-0.4,0-1.9c-0.1-3.1-7.7-4-7.7-9.2v-2.8c0-2.7,2.6-4.6,5.6-4.6c2.8,0,5.8,1.7,5.8,4.7v3.2h-4c0,0,0-2.4,0-2.6
		c0-0.5-0.1-1.8-1.9-1.8c-1.3,0-1.7,1-1.7,1.7c0,0,0,1.2,0,1.3c0,4.2,7.8,4.1,7.8,9.6v2.8C-6.3,473.4-9.7,474.8-12.4,474.8z"/>
	<path class="st0" d="M5.3,455v19.4h-4V455h-4.4v-3.4H9.6v3.4H5.3z"/>
</g>
<g>
	<path class="st0" d="M26.6,467h-2l1-6.7L26.6,467z M30.3,472.4l-3.1-16.7h-3.3l-3.3,16.7h2.8l0.6-2.9h2.9l0.6,2.9H30.3z"/>
	<path class="st0" d="M38.4,468.6c0,0.9-0.7,1.4-1.3,1.4c-0.6,0-1.7,0-1.7,0v-11.8h1.3c1.1,0,1.7,0.7,1.7,2.2
		C38.4,461,38.4,468.6,38.4,468.6z M41.3,468.6c0-1,0-9.1,0-9.1c0-3.6-3.5-3.8-4.3-3.8c-1.2,0-4.3,0-4.3,0v16.7h4.9
		C39.9,472.4,41.3,470.8,41.3,468.6z"/>
	<path class="st0" d="M49.6,472.4h-2.8l-3.2-16.7h2.9l1.7,9.5l1.6-9.5h2.8L49.6,472.4z"/>
	<path class="st0" d="M55,472.4v-16.7h7.4l0,2.5H58v4l2.8,0v2.5H58v5.2l4.8,0v2.5H55z"/>
	<path class="st0" d="M74.2,472.4l-2.9,0l-3.1-10.1l0,10.1h-2.6v-16.7h3.2l2.7,8.1l0-8.1h2.7V472.4z"/>
	<path class="st0" d="M82.9,458.2v14.2h-3v-14.2h-3.2v-2.5h9.3v2.5H82.9z"/>
	<path class="st0" d="M93.1,472.8c-2.4,0-4.4-1.2-4.4-3.7v-13.3h2.9c0,0,0,12.1,0,13.2c0,0.5,0.4,1.3,1.5,1.3c1,0,1.4-0.8,1.4-1.3
		v-13.2h2.9c0,0,0,12.2,0,13.3C97.4,471.6,95.4,472.8,93.1,472.8z"/>
	<path class="st0" d="M106.3,459.7c0,1.2,0,0.6,0,1.5c0,0.7-0.3,1.5-1.5,1.5h-1.3v-4.5c0,0,1.2,0,1.5,0
		C105.9,458.2,106.3,458.7,106.3,459.7z M109.5,472.4l-2.2-7.5c0,0,1.8,0,1.8-2.7c0-1.3,0-1.8,0-3c0-2.7-2.1-3.3-3.7-3.3
		c-2,0-4.8,0-4.8,0v16.7h2.9l0-7.3h1.1l2,7.3H109.5z"/>
	<path class="st0" d="M112.1,472.4v-16.7h7.4l0,2.5H115v4l2.8,0v2.5H115v5.2l4.8,0v2.5H112.1z"/>
</g>
</svg>
