<?xml version="1.0" encoding="UTF-8"?>
<svg id="Layer_1" xmlns="http://www.w3.org/2000/svg" version="1.1" viewBox="0 0 219.8 60">
  <!-- Generator: Adobe Illustrator 29.3.1, SVG Export Plug-In . SVG Version: 2.1.0 Build 151)  -->
  <defs>
    <style>
      .st0 {
        fill: #f7f5ee;
      }

      .st1 {
        fill: #0043ff;
      }

      .st2 {
        fill: #600;
      }

      .st3 {
        fill: #fff;
      }

      .st4 {
        fill: #000e35;
      }

      .st5 {
        fill: #ff1200;
      }
    </style>
  </defs>
  <g>
    <path d="M199.9,37.3l12.6-20.5h-12.1l-7.2,12.9-7.2-12.9h-12.6l12.6,20.1-8.6,14-11.6-34.1h-13.7l-12.3,35.9V16.8h-13l-9.4,28.6-9.4-28.6h-4.6l-8.5,16.4v26h10.1v-25l8.1,25h8.1l8.2-25.1v25.1h19.4l2.6-8.1h14.7l2.5,8.1h0s0,0,0,0h15.8l8.2-14.8,8.8,14.8h12.7l-14.3-21.8ZM154.1,42l4.7-15.8,4.7,15.8h-9.5Z"/>
    <g>
      <path d="M94.9,25.7v-8.9h-29.2v42.3h15.7l4.6-8.9h-9.2v-8.1h13.4l4.7-9h-18.1v-7.5h18.1Z"/>
      <path d="M51.2,34.7c-1,.9-2.7,1.4-5.1,1.4h-5.7v-10.7h5.6c2.5,0,4.2.4,5.2,1.3,1,.9,1.5,2.2,1.5,4s-.5,3.2-1.5,4.1ZM56.9,42.2c4.3-2.5,6.5-6.5,6.5-12s-1.3-7.4-4-9.8c-2.7-2.4-6.9-3.6-12.8-3.6h-17v42.3h10.7v-14.6h6.6l7.1,14.6h11.7l-8.8-17Z"/>
    </g>
    <path d="M218.8,18.6c0,1.1-.8,1.8-1.8,1.8s-1.8-.7-1.8-1.8.8-1.8,1.8-1.8,1.8.7,1.8,1.8ZM218.5,18.6c0-.9-.7-1.5-1.4-1.5s-1.4.6-1.4,1.5.7,1.5,1.4,1.5,1.4-.6,1.4-1.5ZM217.5,18.7l.4.8h-.5l-.4-.7h-.2v.7h-.5v-1.9h.8c.5,0,.7.2.7.6s-.1.4-.4.5ZM216.8,18.4h.3c.2,0,.3,0,.3-.3s-.1-.3-.3-.3h-.3v.5Z"/>
  </g>
  <g>
    <path class="st3" d="M14.4,31c-.5,0-.9-.3-1.3-.6-2.4-2-6.6-5.7-8.2-7.8-1.4-1.7-2.7-3.3-3.3-5.4-.4-1.2-.5-2.4-.5-3.6s.3-3.2.9-4.7C4,4,8.9.8,14.4.8s10.4,3.2,12.4,8.2c.6,1.5.9,3.1.9,4.7s-.2,2.4-.5,3.6c-.6,2-1.8,3.6-3.3,5.4-1.7,2-5.9,5.7-8.2,7.7-.4.3-.8.6-1.3.6Z"/>
    <g>
      <g>
        <path class="st0" d="M26.2,9.2H2.6c-.6,1.4-.9,2.9-.9,4.4s.2,2.3.5,3.4h24.3c.3-1.1.5-2.2.5-3.4s-.3-3.1-.9-4.4Z"/>
        <path class="st2" d="M14.4,1.5c-5.4,0-10,3.2-11.8,7.7h23.6c-1.8-4.5-6.4-7.7-11.8-7.7Z"/>
      </g>
      <path class="st4" d="M2.2,17.1c.6,2,1.9,3.6,3.2,5.2,1.7,2.1,6.4,6.2,8.2,7.8h0c.2.2.5.4.8.4s.5-.2.8-.4h0c1.8-1.6,6.5-5.7,8.2-7.8,1.3-1.6,2.6-3.2,3.2-5.2H2.2Z"/>
      <path class="st5" d="M26.2,9.2h-11.8V3.6c0-1.2,1.1-2.1,2.3-1.9,4.4.8,8,3.7,9.5,7.5Z"/>
      <path class="st1" d="M26.5,17.1c-.6,2-1.9,3.6-3.2,5.2-1.7,2.1-6.4,6.2-8.2,7.8h0c-.2.2-.5.4-.8.4v-11.3c0-1.1.9-2,2-2h10.1Z"/>
    </g>
  </g>
</svg>